<?xml version="1.0" encoding="iso-8859-1"?>
<!-- Generator: Adobe Illustrator 19.0.0, SVG Export Plug-In . SVG Version: 6.00 Build 0)  -->
<svg version="1.1" id="Layer_1" xmlns="http://www.w3.org/2000/svg" xmlns:xlink="http://www.w3.org/1999/xlink" x="0px" y="0px"
	 viewBox="0 0 512.002 512.002" style="enable-background:new 0 0 512.002 512.002;" xml:space="preserve">
<g>
	<g>
		<path d="M488.768,246.933c16.223-10.207,25.335-29.789,21.342-49.727c-3.959-19.791-19.97-34.721-39.355-37.667
			c4.555-6.311,7.56-13.715,8.615-21.62c0.573-4.289-2.441-8.232-6.731-8.804c-4.298-0.575-8.232,2.441-8.804,6.73
			c-1.221,9.154-6.308,17.318-13.955,22.401c-7.039,4.679-15.471,6.324-23.736,4.636c-8.302-1.696-15.448-6.549-20.121-13.664
			c-9.648-14.692-5.62-34.536,8.976-44.236c7.042-4.678,15.472-6.325,23.74-4.635c8.301,1.697,15.446,6.549,20.121,13.667
			c0.359,0.546,0.707,1.114,1.036,1.685c2.151,3.757,6.94,5.059,10.695,2.908c3.756-2.15,5.058-6.939,2.908-10.695
			c-0.486-0.85-1.004-1.694-1.538-2.506c-6.98-10.628-17.663-17.878-30.082-20.416c-6.871-1.404-13.817-1.264-20.439,0.328
			c4.547-18.661-2.483-39.07-19.143-50.58c-7.931-5.478-17.193-8.375-26.786-8.375c-14.275,0-27.682,6.456-36.632,17.427
			c-10.209-4.132-20.785-7.529-31.677-10.138V23.048c0-10.082-8.204-18.286-18.286-18.286h-72.94
			c-10.082,0-18.286,8.203-18.286,18.286v12.331c-1.149,0.312-2.3,0.615-3.443,0.949c-4.155,1.215-6.537,5.567-5.322,9.722
			c1.136,3.886,5.018,6.221,8.913,5.512c1.1,9.037,8.806,16.068,18.137,16.068h24.882l-16.142,28.067
			c-1.432-0.273-2.906-0.421-4.416-0.421c-13.036,0-23.641,10.634-23.641,23.704s10.605,23.703,23.641,23.703
			c13.036,0,23.641-10.633,23.641-23.703c0-5.87-2.144-11.246-5.683-15.39l16.13-28.048l16.498,28.687
			c-3.224,4.051-5.157,9.177-5.157,14.751c0,13.07,10.605,23.703,23.641,23.703c13.036,0,23.641-10.633,23.641-23.703
			s-10.608-23.703-23.643-23.703c-1.792,0-3.535,0.208-5.213,0.588l-16.238-28.234h20.995c9.929,0,18.017-7.959,18.263-17.829
			c8.192,2.122,16.146,4.723,23.844,7.762c-7.262,19.911-0.537,43.042,17.63,55.592c7.931,5.478,17.194,8.375,26.787,8.375
			c3.773,0,7.485-0.46,11.073-1.326c-3.058,12.453-1.15,26.101,6.414,37.619c6.982,10.629,17.665,17.878,30.084,20.416
			c0.795,0.162,1.591,0.304,2.388,0.425c-7.495,10.388-10.829,23.762-8.121,37.302c2.714,13.559,11.087,24.831,22.321,31.539
			c-10.915,6.855-18.946,18.096-21.472,31.552c-2.585,13.77,1.048,27.295,8.901,37.652c-12.943,2.254-24.426,9.791-31.68,21.132
			c-7.537,11.78-9.224,25.685-5.82,38.246c-3.251-0.705-6.591-1.091-9.981-1.091c-9.799,0-19.225,3.009-27.256,8.702
			c-11.374,8.061-18.134,20.286-19.688,33.192c-0.545-0.371-1.094-0.739-1.657-1.089c-10.722-6.673-23.389-8.763-35.67-5.887
			c-13.561,3.174-24.4,11.952-30.667,23.326c-7.089-10.652-18.397-18.427-31.955-20.578c-2.46-0.39-4.962-0.588-7.437-0.588
			c-11.234,0-21.594,3.895-29.744,10.511c-2.602-12.513-10.162-23.949-21.887-31.044c-7.381-4.467-15.817-6.828-24.394-6.828
			c-4.737,0-9.385,0.747-13.82,2.116c2.321-12.625-0.398-26.146-8.646-37.197c-8.172-10.95-20.272-17.654-33.664-18.83
			c6.866-10.823,9.398-24.38,5.882-37.733c-3.518-13.373-12.518-24.151-24.172-30.172c6.04-4.299,11.12-10.028,14.653-16.892
			c1.981-3.849,0.467-8.573-3.381-10.555c-3.849-1.98-8.573-0.466-10.555,3.381c-6.086,11.823-18.99,18.642-32.12,16.961
			c-17.333-2.216-29.64-18.221-27.432-35.678c1.073-8.492,5.376-16.044,12.115-21.263c6.673-5.168,14.944-7.429,23.295-6.361
			c13.504,1.728,24.383,11.912,27.069,25.342c0.85,4.244,4.976,6.991,9.222,6.147c4.244-0.85,6.997-4.978,6.147-9.221
			c-1.647-8.23-5.362-15.639-10.565-21.697c12.702-3.05,23.799-11.271,30.334-22.981c6.816-12.211,7.672-26.185,3.529-38.514
			c2.353,0.357,4.747,0.556,7.173,0.556c10.688,0,21.179-3.701,29.539-10.42c17.608-14.144,22.479-38.456,12.978-58.024
			c1.889-0.922,3.789-1.818,5.706-2.676c3.951-1.767,5.721-6.403,3.954-10.354c-1.767-3.95-6.401-5.719-10.354-3.953
			c-2.87,1.284-5.708,2.638-8.519,4.049c-8.827-8.817-20.71-13.781-33.356-13.781c-10.688,0-21.178,3.7-29.539,10.418
			C78.704,60.199,73.199,81.366,79.374,99.783c-2.341-0.359-4.705-0.563-7.08-0.563c-17.124,0-32.963,9.313-41.334,24.308
			c-9.991,17.898-7.183,39.585,5.42,54.321c-6.438,1.538-12.536,4.432-17.932,8.611c-10.052,7.786-16.468,19.039-18.067,31.688
			c-2.576,20.372,8.14,39.42,25.342,48.316C10.143,277.633,2.219,297.732,7.391,317.39c5.124,19.476,21.866,33.461,41.522,35.231
			c-10.256,16.228-10.086,37.839,2.047,54.098c9.028,12.097,22.846,19.035,37.91,19.035c4.71,0,9.315-0.695,13.719-2.036
			c-3.422,18.906,4.817,38.855,22.134,49.334c7.379,4.466,15.813,6.827,24.389,6.827c10.945,0,21.449-3.89,29.779-10.633
			c3.882,18.838,18.988,34.233,38.981,37.404c2.461,0.391,4.964,0.589,7.439,0.589c17.718,0,33.272-9.677,41.378-24.467
			c3.705,5.553,8.571,10.303,14.4,13.93c7.581,4.718,16.134,7.144,24.837,7.144c3.604,0,7.233-0.416,10.829-1.258
			c4.214-0.986,6.831-5.203,5.843-9.418c-0.986-4.214-5.2-6.834-9.417-5.843c-8.194,1.918-16.653,0.522-23.812-3.933
			c-7.23-4.499-12.274-11.567-14.203-19.901c-3.966-17.144,6.655-34.333,23.677-38.32c8.197-1.918,16.656-0.522,23.815,3.934
			c7.229,4.498,12.272,11.566,14.201,19.902c2.089,9.027,0.18,18.509-5.236,26.015c-2.533,3.51-1.741,8.408,1.769,10.941
			c3.509,2.533,8.408,1.741,10.94-1.769c4.787-6.634,7.718-14.305,8.672-22.253c7.751,5.277,17.002,8.214,26.609,8.214
			c9.799,0,19.224-3.009,27.253-8.702c16.685-11.822,23.448-32.604,18.399-51.356c3.228,0.694,6.533,1.051,9.869,1.051
			c16.209,0,31.111-8.17,39.863-21.854c11.045-17.26,9.538-39.078-2.159-54.551c19.112-3.358,34.638-18.33,38.339-38.054
			C514.964,276.511,505.405,256.853,488.768,246.933z M220.298,127.007c-4.394,0-7.967-3.602-7.967-8.029s3.574-8.03,7.967-8.03
			c4.394,0,7.967,3.602,7.967,8.03C228.265,123.405,224.69,127.007,220.298,127.007z M244.605,51.956h-28.633
			c-1.416,0-2.612-1.196-2.612-2.612V23.048c0-1.417,1.196-2.612,2.612-2.612h28.633V51.956z M289.368,110.949
			c4.394,0,7.967,3.602,7.967,8.03c0,4.426-3.574,8.029-7.967,8.029c-4.393,0-7.967-3.602-7.967-8.029
			C281.401,114.551,284.974,110.949,289.368,110.949z M291.525,49.343c0,1.416-1.196,2.612-2.612,2.612h-28.634v-31.52h28.634
			c1.416,0,2.612,1.195,2.612,2.612V49.343z M375.436,105.854c-6.396,0-12.579-1.936-17.878-5.596
			c-14.423-9.963-18.093-29.877-8.183-44.391c5.913-8.659,15.683-13.828,26.133-13.828c6.396,0,12.579,1.936,17.877,5.595
			c14.423,9.964,18.093,29.879,8.182,44.393C395.655,100.685,385.886,105.854,375.436,105.854z M104.477,59.599
			c5.669-4.554,12.489-6.962,19.723-6.962c9.691,0,18.717,4.366,24.762,11.976c10.923,13.758,8.686,33.888-4.987,44.871
			c-5.669,4.556-12.489,6.964-19.722,6.964c-9.689,0-18.714-4.367-24.76-11.978C88.568,90.714,90.804,70.584,104.477,59.599z
			 M44.647,131.168c5.605-10.037,16.199-16.273,27.649-16.273c5.38,0,10.724,1.412,15.452,4.079
			c15.251,8.616,20.687,28.115,12.116,43.469c-5.601,10.036-16.192,16.272-27.639,16.272c-5.381,0-10.727-1.413-15.458-4.085
			C41.514,166.016,36.078,146.52,44.647,131.168z M53.138,337.141c-14.333,0-26.913-9.763-30.59-23.739
			c-4.476-17.014,5.628-34.519,22.524-39.021c2.664-0.709,5.396-1.068,8.119-1.068c14.334,0,26.913,9.764,30.591,23.743
			c4.481,17.014-5.624,34.516-22.524,39.016C58.594,336.781,55.862,337.141,53.138,337.141z M107.838,403.703
			c-5.526,4.172-12.085,6.378-18.967,6.378c-10.069,0-19.308-4.641-25.348-12.735c-10.506-14.08-7.671-34.133,6.321-44.7
			c5.526-4.172,12.084-6.378,18.966-6.378c10.07,0,19.309,4.643,25.352,12.737C124.669,373.085,121.832,393.136,107.838,403.703z
			 M176.28,448.76c-5.785,9.672-15.941,15.445-27.168,15.445c-5.715,0-11.341-1.578-16.274-4.563
			c-14.988-9.07-19.841-28.727-10.819-43.816c5.787-9.67,15.942-15.442,27.167-15.442c5.717,0,11.346,1.578,16.28,4.564
			C180.455,414.019,185.307,433.672,176.28,448.76z M256.545,464.634c-2.448,15.606-15.584,26.93-31.234,26.93
			c-1.655,0-3.33-0.133-4.982-0.395c-17.258-2.738-29.081-19.109-26.356-36.495c2.449-15.605,15.587-26.928,31.238-26.928
			c1.654,0,3.329,0.133,4.98,0.394C247.452,430.881,259.274,447.251,256.545,464.634z M432.642,212.889
			c-3.452-17.256,7.678-34.115,24.81-37.583c2.075-0.42,4.19-0.633,6.284-0.633c14.999,0,28.038,10.77,31.005,25.61
			c3.454,17.253-7.675,34.112-24.809,37.58c-2.075,0.42-4.19,0.633-6.284,0.633C448.651,238.495,435.611,227.726,432.642,212.889z
			 M397.804,448.668c-5.367,3.805-11.657,5.815-18.191,5.815c-10.299,0-19.987-5.052-25.917-13.514
			c-10.082-14.393-6.65-34.349,7.653-44.486c5.368-3.806,11.658-5.816,18.193-5.816c10.298,0,19.985,5.051,25.914,13.513
			C415.539,418.575,412.108,438.532,397.804,448.668z M461.795,380.85c-5.858,9.16-15.824,14.627-26.66,14.627
			c-6.054,0-11.963-1.752-17.086-5.068c-14.713-9.521-18.975-29.316-9.503-44.123c5.859-9.16,15.826-14.628,26.662-14.628
			c6.054,0,11.962,1.753,17.085,5.068C467.006,346.25,471.269,366.043,461.795,380.85z M495.773,293.799
			c-2.825,15.056-15.895,25.985-31.079,25.985c-1.968,0-3.957-0.189-5.912-0.56c-17.172-3.259-28.501-19.982-25.255-37.276
			c2.826-15.057,15.896-25.985,31.076-25.985c1.968,0,3.957,0.188,5.912,0.559C487.689,259.782,499.019,276.505,495.773,293.799z"/>
	</g>
</g>
<g>
	<g>
		<path d="M484.494,202.328c-0.851-4.243-4.977-6.998-9.223-6.145c-4.244,0.849-6.995,4.979-6.145,9.223
			c0.633,3.162-1.33,6.236-4.377,6.852c-4.242,0.859-6.985,4.994-6.126,9.236c0.752,3.717,4.021,6.283,7.673,6.283
			c0.515,0,1.039-0.051,1.563-0.157C479.358,225.293,486.82,213.946,484.494,202.328z"/>
	</g>
</g>
<g>
	<g>
		<path d="M454.408,359.115c-0.849-4.243-4.976-6.997-9.222-6.145c-4.243,0.849-6.995,4.979-6.145,9.223
			c0.633,3.162-1.33,6.236-4.378,6.853c-4.242,0.859-6.985,4.994-6.126,9.236c0.753,3.718,4.021,6.283,7.673,6.283
			c0.515,0,1.039-0.051,1.563-0.157C449.272,382.08,456.734,370.734,454.408,359.115z"/>
	</g>
</g>
<g>
	<g>
		<path d="M328.528,455.083c-0.849-4.243-4.977-6.996-9.222-6.145c-4.243,0.849-6.995,4.979-6.145,9.223
			c0.633,3.162-1.33,6.236-4.378,6.852c-4.242,0.859-6.985,4.994-6.126,9.236c0.753,3.718,4.021,6.283,7.673,6.283
			c0.515,0,1.039-0.051,1.563-0.157C323.391,478.048,330.854,466.702,328.528,455.083z"/>
	</g>
</g>
<g>
</g>
<g>
</g>
<g>
</g>
<g>
</g>
<g>
</g>
<g>
</g>
<g>
</g>
<g>
</g>
<g>
</g>
<g>
</g>
<g>
</g>
<g>
</g>
<g>
</g>
<g>
</g>
<g>
</g>
</svg>
